<svg xmlns="http://www.w3.org/2000/svg" width="40" height="46" fill="none" viewBox="0 0 40 46"><path fill="url(#paint0_linear_4983_160246)" d="M18.0001 1.1547C19.2377 0.440169 20.7625 0.440169 22.0001 1.1547L37.9187 10.3453C39.1563 11.0598 39.9187 12.3803 39.9187 13.8094V32.1906C39.9187 33.6197 39.1563 34.9402 37.9187 35.6547L22.0001 44.8453C20.7625 45.5598 19.2377 45.5598 18.0001 44.8453L2.08154 35.6547C0.843933 34.9402 0.0815372 33.6197 0.0815372 32.1906V13.8094C0.0815372 12.3803 0.843933 11.0598 2.08154 10.3453L18.0001 1.1547Z"/><path fill="#fff" d="M13 14.7722C13 14.0696 13.5696 13.5 14.2722 13.5H21.3963C24.4877 13.5 26.9938 16.0061 26.9938 19.0975V19.0975C26.9938 22.189 24.4877 24.6951 21.3963 24.6951H13V14.7722Z"/><path fill="url(#paint1_linear_4983_160246)" d="M13 21.1968H23.4954C26.5868 21.1968 29.0929 23.7029 29.0929 26.7943V26.7943C29.0929 29.8857 26.5868 32.3918 23.4954 32.3918H14.3994C13.6265 32.3918 13 31.7653 13 30.9925V21.1968Z"/><g filter="url(#filter0_d_4983_160246)"><path fill="url(#paint2_linear_4983_160246)" fill-rule="evenodd" d="M13 21.1963V24.6946H21.3963C23.4616 24.6946 25.2656 23.5761 26.2357 21.9118C25.4257 21.4562 24.4909 21.1963 23.4954 21.1963H13Z" clip-rule="evenodd"/></g><defs><filter id="filter0_d_4983_160246" width="18.134" height="8.396" x="10.551" y="19.727" color-interpolation-filters="sRGB" filterUnits="userSpaceOnUse"><feFlood flood-opacity="0" result="BackgroundImageFix"/><feColorMatrix in="SourceAlpha" result="hardAlpha" type="matrix" values="0 0 0 0 0 0 0 0 0 0 0 0 0 0 0 0 0 0 127 0"/><feOffset dy=".98"/><feGaussianBlur stdDeviation="1.224"/><feComposite in2="hardAlpha" operator="out"/><feColorMatrix type="matrix" values="0 0 0 0 0 0 0 0 0 0 0 0 0 0 0 0 0 0 0.1 0"/><feBlend in2="BackgroundImageFix" mode="normal" result="effect1_dropShadow_4983_160246"/><feBlend in="SourceGraphic" in2="effect1_dropShadow_4983_160246" mode="normal" result="shape"/></filter><linearGradient id="paint0_linear_4983_160246" x1="20" x2="20" y1="-.718" y2="46.718" gradientUnits="userSpaceOnUse"><stop/><stop offset="1" stop-color="#2D3749"/></linearGradient><linearGradient id="paint1_linear_4983_160246" x1="18.029" x2="24.917" y1="33.682" y2="22.502" gradientUnits="userSpaceOnUse"><stop stop-color="#30FFB4"/><stop offset="1" stop-color="#00B68A"/></linearGradient><linearGradient id="paint2_linear_4983_160246" x1="13.658" x2="27.953" y1="21.196" y2="21.196" gradientUnits="userSpaceOnUse"><stop stop-color="#FFE247"/><stop offset="1" stop-color="#3FFFAE"/></linearGradient></defs></svg>